<svg width="716" height="305" viewBox="0 0 716 305" fill="none" xmlns="http://www.w3.org/2000/svg">
<path d="M368.344 116.796C371.627 115.305 374.809 113.597 378.192 112.391C387.571 109.058 397.067 107.568 406.681 111.587C416.746 115.791 422.156 123.646 424.383 133.996C426.946 145.87 424.668 157.259 420.9 168.497C420.548 169.552 420.213 170.607 419.861 171.679C425.07 172.952 432.741 168.798 434.147 164.075C440.227 143.526 452.453 127.749 471.211 117.382C485.564 109.46 500.939 105.91 517.352 109.008C530.415 111.487 537.483 121.201 535.975 134.448C533.915 152.737 522.761 163.824 506.348 169.72C497.957 172.734 488.88 173.823 480.054 175.581C476.302 176.318 472.45 176.569 468.648 176.938C466.27 177.172 466.153 178.579 466.421 180.455C468.062 191.911 477.491 198.308 489.985 197.17C506.331 195.679 519.613 187.539 532.877 178.864C542.725 172.416 548.386 163.238 553.042 152.838C559.004 139.523 565.67 126.51 571.9 113.312C573.24 110.482 575.049 109.293 578.164 109.343C585.416 109.494 592.684 109.376 599.953 109.427C603.805 109.46 604.977 111.018 603.353 114.501C597.692 126.61 591.897 138.652 586.119 150.71C582.501 158.281 578.75 165.8 575.266 173.438C574.161 175.849 573.441 178.546 573.089 181.175C571.448 193.368 581.865 196.332 589.335 194.172C598.613 191.458 605.245 185.128 610.136 177.306C614.892 169.703 618.677 161.463 622.68 153.407C629.463 139.774 636.028 126.041 642.911 112.458C643.632 111.034 645.842 109.544 647.417 109.494C655.288 109.192 663.177 109.326 671.065 109.41C674.448 109.443 675.52 111.118 674.079 114.334C668.603 126.526 662.992 138.669 657.482 150.845C645.625 176.988 633.717 203.115 621.943 229.292C613.351 248.368 602.917 266.104 586.856 280.005C574.211 290.958 559.892 298.847 543.847 303.586C536.377 305.797 531.855 304.424 527.183 298.294C520.584 289.652 514.086 280.91 507.571 272.217C507.135 271.648 506.75 271.011 506.449 270.358C505.176 267.645 506.248 266.021 509.195 266.305C511.255 266.506 513.299 266.925 515.342 267.26C535.473 270.492 554.197 267.226 570.728 254.766C582.803 245.655 590.775 233.379 596.687 219.645C597.424 217.937 598.01 216.178 598.63 214.42C598.68 214.269 598.496 214.051 598.278 213.465C597.591 213.733 596.854 213.901 596.251 214.269C585.081 221.086 572.972 223.966 559.959 222.626C556.81 222.308 553.628 221.588 550.613 220.6C542.239 217.87 538.32 211.606 537.483 203.149C537.215 200.385 537.181 197.605 537.014 194.088C535.774 195.059 534.937 195.629 534.183 196.315C522.694 206.833 510.267 215.894 495.227 220.667C482.817 224.62 470.122 226.127 457.678 221.622C442.254 216.061 434.332 204.187 432.121 188.226C431.552 184.123 431.635 184.391 427.8 185.53C423.747 186.719 419.56 187.724 415.373 188.025C412.157 188.26 410.399 189.683 408.69 192.112C400.618 203.584 390.552 212.779 377.857 218.992C365.983 224.787 353.355 226.679 340.61 224.134C323.326 220.684 313.143 209.396 309.542 192.162C309.14 190.269 308.839 188.377 308.487 186.468C308.102 186.183 307.717 185.915 307.315 185.63C306.461 186.869 305.74 188.226 304.736 189.315C294.519 200.586 283.298 210.668 269.883 218.054C260.085 223.447 249.685 225.926 238.464 224.318C229.805 223.079 222.553 216.363 220.878 207.721C220.225 204.304 219.924 200.821 219.388 196.835C218.5 197.555 217.864 197.957 217.344 198.493C208.786 207.185 199.39 214.788 188.421 220.265C179.879 224.536 170.835 225.742 161.49 224.285C152.01 222.811 145.412 214.654 145.043 204.103C144.691 194.44 147.673 185.496 151.692 176.888C160.535 157.946 169.613 139.104 178.355 120.112C180.599 115.238 183.681 112.977 189.157 113.262C195.991 113.614 202.841 113.346 209.691 113.346C213.928 113.346 215.05 114.836 213.241 118.739C206.257 133.879 199.106 148.952 192.139 164.092C189.543 169.736 187.231 175.498 184.937 181.259C184.384 182.666 184.2 184.29 184.167 185.814C184.083 189.834 186.361 192.798 190.296 192.447C194.718 192.028 199.374 191.073 203.343 189.164C213.392 184.29 221.732 176.955 228.113 167.894C231.815 162.635 234.076 156.338 236.839 150.443C248.797 124.952 260.939 99.5453 272.445 73.8539C275.46 67.1044 279.53 64.6927 286.514 65.1784C292.091 65.5636 297.718 65.1784 303.312 65.1784C309.442 65.1617 310.447 66.6857 307.867 72.2461C300.649 87.7547 293.431 103.247 286.195 118.739C277.821 136.659 269.33 154.529 261.057 172.483C259.466 175.916 258.243 179.651 257.623 183.386C256.518 190.068 260.119 193.887 266.935 193.786C273.484 193.686 279.161 190.923 284.655 187.69C294.268 182.013 302.341 174.493 308.671 165.449C312.356 160.19 314.466 153.826 317.246 147.947C328.501 124.182 339.756 100.416 351.01 76.6675C352.25 74.0548 353.506 71.4422 354.862 68.8965C356.085 66.602 358.095 65.4464 360.674 65.3626C368.964 65.1114 377.254 64.7764 385.545 64.6592C389.464 64.6089 390.737 66.4847 389.129 70.0186C383.301 82.8476 377.338 95.5928 371.409 108.388C370.17 111.068 368.947 113.748 367.725 116.427C367.943 116.561 368.144 116.712 368.361 116.846L368.344 116.796ZM343.139 178.361C343.289 181.041 343.273 183.017 343.524 184.977C344.78 194.222 351.144 199.95 359.485 198.526C363.655 197.823 368.328 196.483 371.443 193.853C386.566 181.041 392.947 164.494 389.681 144.815C388.124 135.403 380.135 131.283 371.141 134.616C368.277 135.688 365.447 137.212 363.052 139.087C350.072 149.203 344.847 163.255 343.139 178.345V178.361ZM469.134 159.972C470.44 160.039 471.043 160.173 471.629 160.106C482.348 158.683 492.364 155.283 501.223 149.002C505.578 145.921 509.045 141.918 510.853 136.743C512.846 131.048 509.664 126.476 503.719 126.895C500.905 127.096 497.941 127.782 495.412 129.005C483.956 134.616 476.486 144.112 470.909 155.283C470.239 156.623 469.821 158.096 469.117 159.989L469.134 159.972Z" fill="#8B1A1A"/>
<path d="M307.465 29.254C304.283 35.4675 299.711 40.6091 294.435 45.1311C282.846 55.0627 269.213 59.7019 254.14 61.1254C233.875 63.0347 214.028 60.1708 194.182 56.8882C172.225 53.2539 150.336 49.1339 128.312 45.9517C114.562 43.9755 100.611 43.8582 86.8271 46.6887C59.4106 52.3327 37.9731 66.0996 25.5964 91.992C24.1895 94.9397 23.4526 98.2558 22.5817 101.438C22.0458 103.364 21.8783 105.457 19.4163 105.893C16.8706 106.345 15.6815 104.536 14.6264 102.694C9.26706 93.3486 7.30753 83.1491 7.65924 72.5141C8.61388 43.3223 23.4024 23.0572 48.7756 9.97699C66.0428 1.06705 84.7001 -0.724974 103.81 0.229663C116.287 0.84934 128.563 2.69164 140.588 5.924C162.578 11.8026 184.401 18.3007 206.425 24.0453C221.515 27.9811 236.722 31.8164 252.097 34.3286C269.648 37.1925 287.234 36.3719 303.948 29.0362C304.886 28.6175 305.958 28.5506 306.98 28.3161C307.147 28.6343 307.315 28.9525 307.482 29.2707L307.465 29.254Z" fill="#8B1A1A"/>
<path d="M97.4789 135.353C117.911 133.544 136.954 127.28 154.975 117.7C156.432 116.93 157.872 115.925 159.447 115.59C160.585 115.339 162.294 115.607 163.064 116.36C163.818 117.097 164.169 118.873 163.868 119.944C163.433 121.469 162.377 122.892 161.322 124.131C145.495 142.37 125.599 154.529 102.972 162.3C96.4405 164.544 89.6073 166.018 82.8244 167.442C79.9772 168.045 78.3526 169.251 77.1133 171.847C63.9159 199.531 50.6179 227.165 37.3368 254.8C34.6738 260.343 32.8148 260.795 27.8239 257.362C21.5936 253.074 15.3298 248.837 9.09957 244.55C4.04167 241.083 3.623 239.693 6.20219 234.317C12.332 221.521 18.5455 208.759 24.6753 195.964C28.5608 187.841 32.2956 179.634 36.2314 171.528C37.32 169.284 36.9348 168.463 34.4393 168.045C24.0891 166.303 14.0068 163.607 4.30966 159.52C-0.396531 157.527 -1.20046 155.266 1.66345 151.146C7.34102 142.973 13.0688 134.833 18.8302 126.727C21.1414 123.478 21.9788 123.512 25.8811 124.952C33.9202 127.917 42.0597 130.63 50.149 133.46C52.4602 134.264 53.7163 133.393 54.7547 131.233C65.0212 109.762 75.4552 88.3577 85.638 66.8365C87.564 62.7668 89.9925 60.8073 94.6485 60.9412C103.659 61.2092 112.686 60.9747 121.713 60.9747C127.039 60.9747 128.613 63.4367 126.269 68.3606C116.856 88.0898 107.394 107.785 97.9478 127.498C97.1439 129.173 96.4405 130.914 95.5696 132.572C94.347 134.884 95.1676 135.621 97.4956 135.369L97.4789 135.353Z" fill="#8B1A1A"/>
<path d="M200.379 104.168C197.632 103.716 194.735 103.665 192.172 102.727C186.277 100.55 184.384 94.7218 187.533 88.9438C190.799 82.9815 196.393 79.7491 202.405 77.3207C209.021 74.6243 215.988 73.7366 223.139 74.5908C231.028 75.5454 234.813 82.0101 230.961 88.9605C229.135 92.2599 226.154 95.2243 223.056 97.4183C216.373 102.158 208.535 103.732 200.379 104.151V104.168Z" fill="#8B1A1A"/>
<path d="M698.85 110.834C689.839 110.834 682.521 118.153 682.521 127.163C682.521 136.173 689.839 143.492 698.85 143.492C707.86 143.492 715.179 136.173 715.179 127.163C715.179 118.153 707.86 110.834 698.85 110.834ZM711.896 127.163C711.896 134.365 706.035 140.227 698.833 140.227C691.631 140.227 685.77 134.365 685.77 127.163C685.77 119.961 691.631 114.1 698.833 114.1C706.035 114.1 711.896 119.961 711.896 127.163Z" fill="#8B1A1A"/>
<path d="M705.867 135.035L702.35 128.52C702.92 128.252 703.372 127.95 703.757 127.582C704.511 126.895 704.996 126.007 705.181 124.986C705.331 124.014 705.298 123.093 705.047 122.206C704.578 120.497 703.221 119.308 701.211 118.856C700.508 118.705 699.805 118.638 698.934 118.638H692.971V135.671H696.371V129.323H699.135L702.451 135.671H705.851L705.918 135.487C706.001 135.269 705.918 135.085 705.867 135.018V135.035ZM700.609 126.175C700.14 126.376 699.721 126.476 699.302 126.476H696.371V121.502H699.269C699.654 121.502 700.022 121.569 700.458 121.72C701.094 121.954 701.546 122.44 701.731 123.076C702.066 124.199 701.848 125.605 700.609 126.192V126.175Z" fill="#8B1A1A"/>
</svg>
